<svg xmlns="http://www.w3.org/2000/svg" viewBox="0 0 274.4 35"><path d="M142.8 1.9v23.5c0 .9.7 1.6 1.6 1.6.9 0 1.6-.7 1.6-1.6V1.9c0-.9-.7-1.6-1.6-1.6-.8 0-1.6.7-1.6 1.6M43.4 23.5c-3.2 0-5.7-2.6-5.7-5.7 0-3.2 2.6-5.7 5.7-5.7 3.2 0 5.7 2.6 5.7 5.7 0 3.2-2.6 5.7-5.7 5.7m0-14.7c-5 0-9 4-9 9s4 9 9 9 9-4 9-9-4.1-9-9-9M26 10.9v-.5c0-.9-.7-1.6-1.6-1.6-.9 0-1.6.7-1.6 1.6v14.7c0 .9.7 1.6 1.6 1.6.9 0 1.6-.7 1.6-1.6v-7.4c0-3.2 2.6-5.7 5.7-5.7.9 0 1.6-.7 1.6-1.6 0-.9-.7-1.6-1.6-1.6-2.1 0-4.1.8-5.7 2.1m72.4 0v-.5c0-.9-.7-1.6-1.6-1.6-.9 0-1.6.7-1.6 1.6v14.7c0 .9.7 1.6 1.6 1.6.9 0 1.6-.7 1.6-1.6v-7.4c0-3.2 2.6-5.7 5.7-5.7.9 0 1.6-.7 1.6-1.6 0-.9-.7-1.6-1.6-1.6-2.1 0-4.1.8-5.7 2.1M63.6 23.5c-3.2 0-5.7-2.6-5.7-5.7 0-3.2 2.6-5.7 5.7-5.7 3.2 0 5.7 2.6 5.7 5.7.1 3.2-2.5 5.7-5.7 5.7m0-14.7c-2.2 0-4.2.8-5.7 2.1v-.5c0-.9-.7-1.6-1.6-1.6-.9 0-1.6.7-1.6 1.6v23.2c0 .9.7 1.6 1.6 1.6.9 0 1.6-.7 1.6-1.6v-8.9c1.6 1.3 3.6 2.1 5.7 2.1 5 0 9-4 9-9s-4-9-9-9M113 1.9v3.4c0 2-1.6 3.5-3.5 3.5-.4 0-.8.2-1.1.5-.3.3-.5.7-.5 1.1 0 .4.2.8.5 1.1.3.3.7.5 1.1.5h3.5v8c0 3.7 3 6.8 6.7 6.8.9 0 1.6-.7 1.6-1.6 0-.9-.7-1.6-1.6-1.6-1.9 0-3.5-1.6-3.5-3.6v-8h3.1c.9 0 1.6-.7 1.6-1.6 0-.9-.7-1.6-1.6-1.6h-4.1c.6-1 1-2.2 1-3.5V1.9c0-.9-.7-1.6-1.6-1.6S113 1 113 1.9m11.4 7c-.8.4-1.2 1.3-.8 2.1l6 13.3-3.6 8.6c-.3.8 0 1.8.9 2.1.8.3 1.8 0 2.1-.9l9.7-23.2c.3-.8 0-1.8-.9-2.1-.8-.3-1.8 0-2.1.9l-4.4 10.5-4.7-10.5c-.3-.6-.9-1-1.5-1-.3.1-.5.2-.7.2m-45.5 7.3c-.2 0-.3 0-.5.1.7-2.4 2.9-4.2 5.5-4.2s4.8 1.7 5.5 4.1H78.9zm5-7.4c-5 0-9 4-9 9s4 9 9 9c2 0 3.8-.7 5.3-1.8.2-.1.3-.2.5-.4.7-.6.8-1.6.2-2.3-.6-.7-1.6-.8-2.3-.2-.1.1-.2.2-.3.2-1 .7-2.1 1.1-3.4 1.1-2.6 0-4.8-1.8-5.5-4.2.2 0 .3.1.5.1h12.4c.4 0 .8-.2 1.1-.5.3-.3.5-.7.5-1.1 0-4.9-4-8.9-9-8.9m-71 4.3h-7V3.5h7c2.5 0 4.6 2.1 4.6 4.8 0 2.7-2.1 4.8-4.6 4.8m0-12.8H4.3c-.4 0-.8.2-1.1.5-.4.3-.5.7-.5 1.1v23.2c0 .9.7 1.6 1.6 1.6.9 0 1.6-.7 1.6-1.6v-8.8h7c4.4 0 7.8-3.6 7.8-8s-3.4-8-7.8-8M173.8 17c-.4 1.3-1 2.4-1.8 3.4l-3.1-2.2c-.6-.4-1.4-.4-2 0-.1 0-5.1 3.6-7.2 5.1-3.5-1.6-5.9-5.2-5.9-9.3 0-5.7 4.6-10.3 10.3-10.3 5.7 0 10.3 4.6 10.3 10.3-.1 1-.3 2-.6 3m4.7 8l-3.7-2.6c1-1.3 1.8-2.8 2.3-4.4.4-1.3.6-2.6.6-4 0-7.6-6.2-13.8-13.8-13.8-7.6 0-13.8 6.2-13.8 13.8 0 6 3.8 11 9.1 13 .5.2 1.2.1 1.6-.2h.1c.1 0 .1-.1.3-.2.2-.2.5-.4.9-.6.8-.5 1.8-1.2 2.8-1.9 1.1-.8 2.2-1.6 3-2.1l8.6 6.1c.8.6 1.9.4 2.5-.4.5-1.1.3-2.2-.5-2.7M175.3.9c-.1 0-.1.1-.1.1 0 .1.1.1.1.1h.2s.1 0 .1.1V3c0 .1.1.1.1.1h.1c.1 0 .1-.1.1-.1V1.3s0-.1.1-.1h.2c.1 0 .1-.1.1-.1 0-.1-.1-.1-.1-.1h-.9zm2.9 0c-.1 0-.1 0-.2.1l-.3.6c0 .1-.1.2-.1.2s0-.1-.1-.2l-.3-.6c0-.1-.1-.1-.2-.1s-.1.1-.1.1v2c0 .1.1.1.1.1h.1c.1 0 .1-.1.1-.1V1.7s0 .1.1.2l.1.2c0 .1.1.1.2.1h.1c.1 0 .1-.1.2-.1l.1-.2c.1-.1.1-.2.1-.2V3c0 .1.1.1.1.1h.1c.1 0 .1-.1.1-.1V1c-.1 0-.1-.1-.2-.1zm28.1 7.3c-1.5-1.9-3.5-3.1-6.2-3.1-3.2 0-5.5 1.6-5.5 4.1 0 2.6 1.6 3.5 4.7 4.2l3.1.7c4.1.9 6.5 2.4 6.5 6.2 0 4-3.3 6.9-8.6 6.9-5.1 0-8-2.7-9.2-5.3l1.9-1.3c.9 2.4 3.3 4.7 7.3 4.7s6.3-2 6.3-4.9c0-2.5-1.6-3.6-5-4.4l-2.9-.7c-3.5-.8-6.4-1.9-6.4-6.1 0-3.6 3.2-6.3 7.8-6.3 3.8 0 6.4 1.7 7.8 3.5l-1.6 1.8zm2.8 2.4h3.3V4.5l2-.4v6.5h3.9v1.6h-3.9v11c0 .8 0 1.4.3 1.8.2.3.6.4 1.3.4 1 0 1.9-.3 2.3-.5v1.8c-.6.3-1.5.5-2.9.5-1 0-1.8-.2-2.3-.8-.4-.5-.7-1.3-.7-2.5V12.2h-3.3v-1.6zm19.7 1.7c-.4-.1-.8-.1-1.1-.1-2.8 0-4.9 2.2-4.9 5.5v9.2h-2V10.6h2v3.2c.6-1.9 2.5-3.6 4.9-3.6.4 0 .7 0 1.1.1v2zm1.8 3.1c-.1-3.2 2.6-5.1 6.2-5.1 3.4 0 5.8 1 5.8 5.1v8.1c0 1.3.1 2.1 1.3 2.1.5 0 1.1-.2 1.2-.3v1.6c-.4.2-1 .4-1.7.4-1.6 0-2.7-.9-2.7-2.6-.6 1.3-2.4 2.7-5.3 2.7-3.2 0-5.2-1.9-5.2-4.9 0-1.4.4-2.5 1.2-3.2 1.1-1 2.7-1.4 4.7-1.8l3.7-.7c.6-.1.8-.2.8-.9v-.5c0-2.3-1.1-3.4-4-3.4-2.7 0-4.2 1.4-4.2 3.9l-1.8-.5zm10 2.8c-.3.1-.8.2-2.1.5l-2 .4c-1.1.2-2.2.4-2.9.9-.8.5-1.4 1.2-1.4 2.5 0 2.2 1.5 3.3 3.6 3.3 2.7 0 4.8-1.7 4.8-4.5v-3.1zm4-7.6h3.3V4.5l2-.4v6.5h3.9v1.6h-3.9v11c0 .8 0 1.4.3 1.8.2.3.6.4 1.3.4 1 0 1.9-.3 2.3-.5v1.8c-.6.3-1.5.5-2.9.5-1 0-1.8-.2-2.3-.8-.4-.5-.7-1.3-.7-2.5V12.2h-3.3v-1.6zm11.4 4.8c-.1-3.2 2.6-5.1 6.2-5.1 3.4 0 5.8 1 5.8 5.1v8.1c0 1.3.1 2.1 1.3 2.1.5 0 1.1-.2 1.2-.3v1.6c-.4.2-1 .4-1.7.4-1.6 0-2.7-.9-2.7-2.6-.6 1.3-2.4 2.7-5.3 2.7-3.2 0-5.2-1.9-5.2-4.9 0-1.4.4-2.5 1.2-3.2 1.1-1 2.7-1.4 4.7-1.8l3.7-.7c.6-.1.8-.2.8-.9v-.5c0-2.3-1.1-3.4-4-3.4-2.7 0-4.2 1.4-4.2 3.9l-1.8-.5zm10 2.8c-.3.1-.8.2-2.1.5l-2 .4c-1.1.2-2.2.4-2.9.9-.8.5-1.4 1.2-1.4 2.5 0 2.2 1.5 3.3 3.6 3.3 2.7 0 4.8-1.7 4.8-4.5v-3.1z" fill="#41BB72"/></svg>